<svg
  width="16"
  height="16"
  viewBox="0 0 32 32"
  xmlns="http://www.w3.org/2000/svg"
  fill="#ef8e02"
>
  <circle cx="16" cy="16" r="8"  />
  <path
    fill-rule="evenodd"
    clip-rule="evenodd"
    d="M13 0H19V2.3222C24.3239 3.48456 28.5155 7.67609 29.6778 13H32V19H29.6778C28.5155 24.3239 24.3239 28.5154 19 29.6778V32H13V29.6778C7.6761 28.5154 3.48451 24.3239 2.32218 19H0V13H2.32218C3.48451 7.67609 7.6761 3.48456 13 2.3222V0ZM26 16C26 21.5228 21.5228 26 16 26C10.4772 26 6 21.5228 6 16C6 10.4772 10.4772 6 16 6C21.5228 6 26 10.4772 26 16Z"
  />
</svg>
